<svg width="128" height="128" viewBox="0 0 128 128" fill="none" xmlns="http://www.w3.org/2000/svg">
  <defs>
    <linearGradient id="bg" x1="16" y1="12" x2="112" y2="116" gradientUnits="userSpaceOnUse">
      <stop stop-color="#0F2A49"/>
      <stop offset="1" stop-color="#123B67"/>
    </linearGradient>
    <linearGradient id="accent" x1="20" y1="24" x2="108" y2="104" gradientUnits="userSpaceOnUse">
      <stop stop-color="#64B5FF"/>
      <stop offset="1" stop-color="#1FC6B1"/>
    </linearGradient>
    <linearGradient id="line" x1="32" y1="28" x2="96" y2="92" gradientUnits="userSpaceOnUse">
      <stop stop-color="#BFE0FF" stop-opacity="0.95"/>
      <stop offset="1" stop-color="#8ED8CB" stop-opacity="0.9"/>
    </linearGradient>
    <filter id="softGlow" x="6" y="6" width="116" height="116" filterUnits="userSpaceOnUse" color-interpolation-filters="sRGB">
      <feGaussianBlur stdDeviation="4.5"/>
    </filter>
  </defs>

  <rect x="8" y="8" width="112" height="112" rx="30" fill="url(#bg)"/>

  <rect x="8" y="8" width="112" height="112" rx="30" stroke="url(#accent)" stroke-width="2"/>

  <g opacity="0.24" filter="url(#softGlow)">
    <circle cx="64" cy="66" r="30" fill="#58AFFF"/>
  </g>

  <g stroke="url(#line)" stroke-width="4.2" stroke-linecap="round">
    <path d="M64 38L38 72"/>
    <path d="M64 38L90 72"/>
    <path d="M38 72L26 92"/>
    <path d="M38 72L52 92"/>
    <path d="M90 72L76 92"/>
    <path d="M90 72L102 92"/>
  </g>

  <g>
    <circle cx="64" cy="34" r="11" fill="url(#accent)"/>
    <circle cx="38" cy="72" r="9.5" fill="#8BC8FF"/>
    <circle cx="90" cy="72" r="9.5" fill="#5CD3C1"/>
    <circle cx="26" cy="94" r="7.5" fill="#B2DDFF"/>
    <circle cx="52" cy="94" r="7.5" fill="#9CCFFF"/>
    <circle cx="76" cy="94" r="7.5" fill="#8ADFCF"/>
    <circle cx="102" cy="94" r="7.5" fill="#72D7C6"/>
  </g>
</svg>
